{
  "accessors": [
    {
      "bufferView": 2,
      "componentType": 5126,
      "count": 2602,
      "max": [
        0.9872310161590576,
        0.9872304201126099,
        0.9975767135620117
      ],
      "min": [
        -0.9872304201126099,
        -0.9872307181358337,
        -1.042117953300476
      ],
      "type": "VEC3"
    },
    {
      "bufferView": 2,
      "byteOffset": 31224,
      "componentType": 5126,
      "count": 2602,
      "max": [
        1.0,
        1.0,
        1.0
      ],
      "min": [
        -1.0,
        -1.0,
        -1.0
      ],
      "type": "VEC3"
    },
    {
      "bufferView": 1,
      "componentType": 5126,
      "count": 2602,
      "max": [
        1.0000001192092896,
        1.0000001192092896
      ],
      "min": [
        0.0,
        0.0
      ],
      "type": "VEC2"
    },
    {
      "bufferView": 0,
      "componentType": 5125,
      "count": 12672,
      "type": "SCALAR"
    },
    {
      "bufferView": 2,
      "byteOffset": 62448,
      "componentType": 5126,
      "count": 2760,
      "max": [
        0.9872311353683472,
        0.9872304797172546,
        0.9975767135620117
      ],
      "min": [
        -0.9872304201126099,
        -0.9872307777404785,
        -0.8808662295341492
      ],
      "type": "VEC3"
    },
    {
      "bufferView": 2,
      "byteOffset": 95568,
      "componentType": 5126,
      "count": 2760,
      "max": [
        1.0,
        1.0,
        1.0
      ],
      "min": [
        -1.0,
        -1.0,
        -1.0
      ],
      "type": "VEC3"
    },
    {
      "bufferView": 3,
      "componentType": 5126,
      "count": 2760,
      "max": [
        0.45733046531677246,
        0.999954342842102,
        0.9999142289161682,
        1.0
      ],
      "min": [
        -0.5529521703720093,
        -0.9966458082199097,
        -0.9999135732650757,
        1.0
      ],
      "type": "VEC4"
    },
    {
      "bufferView": 1,
      "byteOffset": 20816,
      "componentType": 5126,
      "count": 2760,
      "max": [
        1.0990718603134155,
        1.0990705490112305
      ],
      "min": [
        -0.09906399250030518,
        -0.0990755558013916
      ],
      "type": "VEC2"
    },
    {
      "bufferView": 1,
      "byteOffset": 42896,
      "componentType": 5126,
      "count": 2760,
      "max": [
        1.0990718603134155,
        1.0990705490112305
      ],
      "min": [
        -0.09906399250030518,
        -0.0990755558013916
      ],
      "type": "VEC2"
    },
    {
      "bufferView": 0,
      "byteOffset": 50688,
      "componentType": 5125,
      "count": 12672,
      "type": "SCALAR"
    }
  ],
  "asset": {
    "extras": {
      "author": "assetfactory (https://sketchfab.com/assetfactory)",
      "license": "SKETCHFAB Standard (https://sketchfab.com/licenses)",
      "source": "https://sketchfab.com/3d-models/anatomical-eye-ball-281784b8e6ff4713991cdee224f07b09",
      "title": "Anatomical Eye ball"
    },
    "generator": "Sketchfab-16.33.0",
    "version": "2.0"
  },
  "bufferViews": [
    {
      "buffer": 0,
      "byteLength": 101376,
      "name": "floatBufferViews",
      "target": 34963
    },
    {
      "buffer": 0,
      "byteLength": 64976,
      "byteOffset": 101376,
      "byteStride": 8,
      "name": "floatBufferViews",
      "target": 34962
    },
    {
      "buffer": 0,
      "byteLength": 128688,
      "byteOffset": 166352,
      "byteStride": 12,
      "name": "floatBufferViews",
      "target": 34962
    },
    {
      "buffer": 0,
      "byteLength": 44160,
      "byteOffset": 295040,
      "byteStride": 16,
      "name": "floatBufferViews",
      "target": 34962
    }
  ],
  "buffers": [
    {
      "byteLength": 339200,
      "uri": "scene.bin"
    }
  ],
  "extensionsUsed": [
    "KHR_materials_specular"
  ],
  "images": [
    {
      "uri": "textures/material_baseColor.jpeg"
    },
    {
      "uri": "textures/material_normal.png"
    }
  ],
  "materials": [
    {
      "alphaMode": "BLEND",
      "doubleSided": true,
      "extensions": {
        "KHR_materials_specular": {
          "specularColorFactor": [
            1.0,
            1.0,
            1.0
          ],
          "specularFactor": 0.5293614403870287
        }
      },
      "name": "Glass",
      "pbrMetallicRoughness": {
        "baseColorFactor": [
          0.8,
          0.8,
          0.8,
          0.1085521047005129
        ],
        "metallicFactor": 0.9878551941947251,
        "roughnessFactor": 0.1085521047005129
      }
    },
    {
      "doubleSided": true,
      "name": "material",
      "normalTexture": {
        "index": 1
      },
      "pbrMetallicRoughness": {
        "baseColorTexture": {
          "index": 0
        },
        "metallicFactor": 0.0,
        "roughnessFactor": 0.24672830447817481
      }
    }
  ],
  "meshes": [
    {
      "name": "Sphere_Glass_0",
      "primitives": [
        {
          "attributes": {
            "NORMAL": 1,
            "POSITION": 0,
            "TEXCOORD_0": 2
          },
          "indices": 3,
          "material": 0,
          "mode": 4
        }
      ]
    },
    {
      "name": "Sphere.001_Eye_0",
      "primitives": [
        {
          "attributes": {
            "NORMAL": 5,
            "POSITION": 4,
            "TANGENT": 6,
            "TEXCOORD_0": 7,
            "TEXCOORD_1": 8
          },
          "indices": 9,
          "material": 1,
          "mode": 4
        }
      ]
    }
  ],
  "nodes": [
    {
      "children": [
        1
      ],
      "matrix": [
        1.0,
        0.0,
        0.0,
        0.0,
        0.0,
        2.220446049250313e-16,
        -1.0,
        0.0,
        0.0,
        1.0,
        2.220446049250313e-16,
        0.0,
        0.0,
        0.0,
        0.0,
        1.0
      ],
      "name": "Sketchfab_model"
    },
    {
      "children": [
        2
      ],
      "matrix": [
        1.0,
        0.0,
        0.0,
        0.0,
        0.0,
        0.0,
        1.0,
        0.0,
        0.0,
        -1.0,
        0.0,
        0.0,
        0.0,
        0.0,
        0.0,
        1.0
      ],
      "name": "Eye.fbx"
    },
    {
      "children": [
        3,
        5
      ],
      "name": "RootNode"
    },
    {
      "children": [
        4
      ],
      "matrix": [
        1.9470718881642313e-05,
        99.9999999999981,
        -1.0051923155941626e-13,
        0.0,
        99.99999999999771,
        -1.9470718881642313e-05,
        8.742277980456488e-06,
        0.0,
        8.742277980456303e-06,
        -1.802703600039504e-12,
        -99.9999999999996,
        0.0,
        0.0,
        0.0,
        0.0,
        1.0
      ],
      "name": "Sphere"
    },
    {
      "mesh": 0,
      "name": "Sphere_Glass_0"
    },
    {
      "children": [
        6
      ],
      "matrix": [
        1.911201271787065e-05,
        98.15771484374812,
        -3.70207033493704e-14,
        0.0,
        98.15771484374775,
        -1.911201271787065e-05,
        8.581220290904426e-06,
        0.0,
        8.581220290904257e-06,
        -1.7078459818769417e-12,
        -98.1577148437496,
        0.0,
        0.0,
        0.0,
        0.0,
        1.0
      ],
      "name": "Sphere.001"
    },
    {
      "mesh": 1,
      "name": "Sphere.001_Eye_0"
    }
  ],
  "samplers": [
    {
      "magFilter": 9729,
      "minFilter": 9987,
      "wrapS": 10497,
      "wrapT": 10497
    }
  ],
  "scene": 0,
  "scenes": [
    {
      "name": "Sketchfab_Scene",
      "nodes": [
        0
      ]
    }
  ],
  "textures": [
    {
      "sampler": 0,
      "source": 0
    },
    {
      "sampler": 0,
      "source": 1
    }
  ]
}
